<svg xmlns="http://www.w3.org/2000/svg" viewBox="0 0 512 512">
  <path d="M395 52.366C395 23.491 371.509 0 342.635 0c-28.875 0-52.366 23.491-52.366 52.366h30c0-12.333 10.033-22.366 22.366-22.366C354.967 30 365 40.033 365 52.366s-10.033 22.366-22.365 22.366H59.574v30h283.061C371.509 104.731 395 81.24 395 52.366z"/>
  <path d="M459.635 107.362c12.332 0 22.365 10.033 22.365 22.366s-10.033 22.366-22.365 22.366H176.574v30H459.635c28.874 0 52.365-23.491 52.365-52.366s-23.491-52.366-52.365-52.366c-28.875 0-52.366 23.491-52.366 52.366h30c0-12.332 10.033-22.366 22.366-22.366zM387.013 301.556c-12.332 0-22.365-10.033-22.365-22.365h-30c0 28.875 23.491 52.365 52.366 52.365 28.874 0 52.365-23.491 52.365-52.366s-23.491-52.365-52.365-52.365H103.953v30h283.061c12.332 0 22.365 10.033 22.365 22.366 0 12.332-10.033 22.365-22.366 22.365zM253.729 365.893c-17.492-17.492-37.949-31.16-60.803-40.626C170.073 315.8 145.942 311 121.205 311H0v101h100.667v30H0v70h512V412H365.041c-42.048 0-81.579-16.375-111.312-46.107zM161.231 442h-30.282v-30h30.282zM43.185 226.825h30.282v30H43.185zM116.012 152.094h30.282v30h-30.282zM.063 74.731h30.282v30H.063z"/>
</svg>