<svg xmlns="http://www.w3.org/2000/svg" viewBox="0 0 463.698 463.698">
  <g fill="#ffd33f">
    <circle cx="295.86" cy="211.85" r="88"/>
    <path d="M295.866 99.849a8 8 0 01-8-8v-16a8 8 0 0116 0v16a8 8 0 01-8 8zM380.714 135.001a8 8 0 01-5.656-13.656l11.312-11.32a8.004 8.004 0 1111.32 11.32l-11.32 11.304a8.003 8.003 0 01-5.656 2.352zM431.866 219.849h-16a8 8 0 010-16h16a8 8 0 010 16zM211.01 135.001a8 8 0 01-5.656-2.344l-11.312-11.312a8.001 8.001 0 01-.004-11.316 8.001 8.001 0 0111.316-.004l11.312 11.32a8 8 0 01-5.656 13.656z"/>
  </g>
  <path d="M263.698 243.849c.005-35.346-28.645-64.004-63.991-64.009a64.003 64.003 0 00-25.057 5.105c-19.036-34.842-62.712-47.655-97.554-28.619-25.956 14.181-40.577 42.814-36.846 72.155-26.161 4.284-43.896 28.965-39.612 55.126 3.782 23.091 23.661 40.091 47.06 40.242h216c22.091 0 40-17.909 40-40s-17.909-40-40-40z" fill="#75e6ff"/>
  <path d="M399.698 267.849a63.988 63.988 0 00-18.68 2.784c-11.667-47.13-59.331-75.879-106.461-64.212-36.636 9.069-63.395 40.51-66.491 78.124a55.452 55.452 0 00-8.368-.696c-30.928 0-56 25.072-56 56s25.072 56 56 56h200c35.346 0 64-28.654 64-64s-28.654-64-64-64z" fill="#adf0ff"/>
</svg>