<svg viewBox="0 0 64 64" xmlns="http://www.w3.org/2000/svg">
  <circle cx="44" cy="20" fill="#ffe352" r="18"/>
  <path d="M53.623 26.328C51.927 18.148 44.682 12 36 12c-5.87 0-11.068 2.823-14.354 7.171A8.041 8.041 0 0020 19c-3.392 0-6.285 2.115-7.448 5.096C6.609 24.812 2 29.864 2 36c0 6.627 5.373 12 12 12h37c6.075 0 11-4.925 11-11 0-5.169-3.571-9.494-8.377-10.672z" fill="#edeff1"/>
  <g fill="#80d6fb">
    <path d="M19 59a3 3 0 11-6 0c0-1.657 3-7 3-7s3 5.343 3 7zM35 59a3 3 0 11-6 0c0-1.657 3-7 3-7s3 5.343 3 7zM51 59a3 3 0 11-6 0c0-1.657 3-7 3-7s3 5.343 3 7z"/>
  </g>
</svg>