<svg xmlns="http://www.w3.org/2000/svg" viewBox="0 0 14.078 14.078">
  <g fill="#030104">
    <path d="M10.348 1.244h.208a.401.401 0 000-.804h-.208a.401.401 0 000 .804zM6.624 1.244h.207a.401.401 0 000-.804h-.207a.401.401 0 000 .804zM4.763 1.244h.207a.401.401 0 100-.804h-.207a.402.402 0 000 .804zM8.487 1.244h.207a.401.401 0 000-.804h-.207a.401.401 0 000 .804zM12.155 1.646h.206a.401.401 0 100-.804h-.206a.401.401 0 100 .804zM2.69 1.244h.207a.402.402 0 000-.804H2.69a.402.402 0 000 .804zM8.754 2.504c0 .222.18.402.402.402h.206a.401.401 0 100-.804h-.205a.402.402 0 00-.403.402zM1.708 2.906h.207a.402.402 0 000-.804h-.207a.402.402 0 000 .804zM10.616 2.504c0 .222.18.402.402.402h.207a.401.401 0 100-.804h-.207a.401.401 0 00-.402.402zM5.031 2.504c0 .222.18.402.401.402h.207a.401.401 0 000-.804h-.207a.401.401 0 00-.401.402zM6.892 2.504c0 .222.18.402.402.402h.207a.401.401 0 000-.804h-.207a.402.402 0 00-.402.402zM3.168 2.504c0 .222.18.402.401.402h.208a.402.402 0 000-.804h-.208a.402.402 0 00-.401.402zM12.478 2.504c0 .222.18.402.402.402h.206a.401.401 0 100-.804h-.206a.402.402 0 00-.402.402zM4.768 4.312a.402.402 0 00-.402-.402h-.207a.402.402 0 000 .804h.207c.223 0 .402-.18.402-.402zM6.022 4.714h.207a.401.401 0 000-.804h-.207a.402.402 0 000 .804zM9.745 4.714h.207a.401.401 0 100-.804h-.207a.401.401 0 000 .804zM7.884 4.714h.207a.401.401 0 000-.804h-.207a.401.401 0 100 .804zM13.068 4.312c0 .222.18.402.402.402h.206a.401.401 0 100-.804h-.206a.401.401 0 00-.402.402zM11.608 4.714h.207a.401.401 0 000-.804h-.207a.401.401 0 100 .804zM2.907 4.312a.402.402 0 00-.402-.402h-.207a.402.402 0 000 .804h.207c.222 0 .402-.18.402-.402zM.436 4.714h.207a.402.402 0 000-.804H.436a.402.402 0 000 .804zM1.647 6.053a.401.401 0 00-.402-.401h-.206a.402.402 0 100 .803h.207a.4.4 0 00.401-.402zM12.417 6.455a.401.401 0 000-.803h-.207a.401.401 0 100 .803h.207zM8.694 6.455a.401.401 0 000-.803h-.207a.401.401 0 100 .803h.207zM6.831 6.455a.401.401 0 000-.803h-.207a.401.401 0 100 .803h.207zM4.763 6.455h.207a.401.401 0 100-.803h-.207a.402.402 0 100 .803zM10.556 6.455a.401.401 0 000-.803h-.208a.401.401 0 100 .803h.208zM2.9 6.455h.208a.402.402 0 000-.803H2.9a.402.402 0 100 .803zM9.157 8.33h.206a.401.401 0 100-.803h-.206a.401.401 0 100 .803zM4.179 7.929a.401.401 0 00-.402-.402h-.208a.401.401 0 000 .803h.208a.401.401 0 00.402-.401zM11.018 8.33h.207a.401.401 0 100-.803h-.207a.401.401 0 100 .803zM7.294 8.33h.207a.401.401 0 100-.803h-.207a.401.401 0 100 .803zM5.432 8.33h.207a.401.401 0 100-.803h-.207a.401.401 0 000 .803zM2.317 7.929a.401.401 0 00-.402-.402h-.207a.402.402 0 000 .803h.207a.401.401 0 00.402-.401zM13.489 7.929a.401.401 0 00-.402-.402h-.206a.401.401 0 100 .803h.206a.401.401 0 00.402-.401zM9.712 10.022h.207a.401.401 0 100-.803h-.207a.401.401 0 100 .803zM7.85 10.022h.207a.402.402 0 100-.803H7.85a.401.401 0 000 .803zM11.574 10.022h.207a.401.401 0 100-.803h-.207a.401.401 0 000 .803zM13.643 9.218h-.207a.401.401 0 000 .803h.207a.401.401 0 100-.803zM2.873 9.621a.401.401 0 00-.402-.402h-.207a.402.402 0 000 .803h.207c.222 0 .402-.18.402-.401zM5.988 10.022h.207a.401.401 0 100-.803h-.207a.401.401 0 000 .803zM.609 9.218H.402a.402.402 0 000 .803h.207a.402.402 0 100-.803zM4.735 9.621a.401.401 0 00-.402-.402h-.207a.402.402 0 000 .803h.207c.222 0 .402-.18.402-.401zM12.383 10.959h-.206a.401.401 0 100 .803h.206a.401.401 0 100-.803zM7.2 11.362a.401.401 0 00-.402-.402h-.206a.401.401 0 100 .803h.206c.222 0 .402-.18.402-.401zM3.074 10.959h-.207a.402.402 0 000 .803h.208a.402.402 0 10-.001-.803zM10.924 11.362a.402.402 0 00-.402-.402h-.207a.401.401 0 100 .803h.207c.222 0 .402-.18.402-.401zM9.062 11.362a.401.401 0 00-.402-.402h-.207a.401.401 0 000 .803h.207c.222 0 .402-.18.402-.401zM5.337 11.362a.401.401 0 00-.401-.402h-.207a.402.402 0 000 .803h.207c.222 0 .401-.18.401-.401zM7.467 12.834H7.26a.402.402 0 000 .804h.207a.403.403 0 000-.804zM11.192 12.834h-.208a.402.402 0 000 .804h.208a.402.402 0 000-.804zM9.329 12.834h-.207a.402.402 0 000 .804h.207a.402.402 0 000-.804zM5.605 12.834h-.207a.402.402 0 000 .804h.207a.402.402 0 000-.804z"/>
  </g>
</svg>