<svg xmlns="http://www.w3.org/2000/svg" viewBox="0 0 517.12 517.12">
  <path fill="#629fd6" d="M5.12 386.484h296.32v16H5.12z"/>
  <g fill="#9abfe2">
    <path d="M325.184 432.084H517.12v16H325.184zM15.624 432.084H207.56v16H15.624z"/>
  </g>
  <path fill="#cde0f1" d="M74.32 477.692h373.592v16H74.32z"/>
  <path d="M417.44 156.348h-7.584c-7.544-31.728-36.136-55.504-70.336-55.504-8.312 0-16.728 1.832-23.696 4.152-16.728-47.472-62.032-81.568-115.448-81.568-67.632 0-122.456 54.544-122.456 121.84 0 4.24.232 8.416.64 12.552C34.112 165.468 0 204.164 0 250.484c0 51.776 42.576 94.16 94.608 94.16H417.4c52.024 0 94.6-42.36 94.6-94.16.04-51.752-42.528-94.136-94.56-94.136z" fill="#629fd6"/>
</svg>