<svg xmlns="http://www.w3.org/2000/svg" viewBox="0 0 512 512">
  <path d="M42.667 187.733h273.067c4.719 0 8.533-3.823 8.533-8.533s-3.814-8.533-8.533-8.533H42.667c-4.719 0-8.533 3.823-8.533 8.533s3.814 8.533 8.533 8.533zM247.467 273.067H59.733A8.53 8.53 0 0051.2 281.6a8.53 8.53 0 008.533 8.533h187.733a8.53 8.53 0 008.533-8.533 8.53 8.53 0 00-8.532-8.533zM119.467 230.4a8.53 8.53 0 00-8.533-8.533H8.533A8.53 8.53 0 000 230.4a8.53 8.53 0 008.533 8.533h102.4a8.531 8.531 0 008.534-8.533zM93.867 136.533h119.467a8.53 8.53 0 008.533-8.533 8.53 8.53 0 00-8.533-8.533H93.867A8.53 8.53 0 0085.334 128a8.53 8.53 0 008.533 8.533zM238.933 128a8.53 8.53 0 008.533 8.533H435.2a8.53 8.53 0 008.533-8.533 8.53 8.53 0 00-8.533-8.533H247.467a8.531 8.531 0 00-8.534 8.533zM349.867 170.667c-4.719 0-8.533 3.823-8.533 8.533s3.814 8.533 8.533 8.533h68.267c4.719 0 8.533-3.823 8.533-8.533s-3.814-8.533-8.533-8.533h-68.267zM179.2 85.333h221.867c4.719 0 8.533-3.823 8.533-8.533s-3.814-8.533-8.533-8.533H179.2c-4.719 0-8.533 3.823-8.533 8.533s3.814 8.533 8.533 8.533zM469.333 273.067H281.6a8.53 8.53 0 00-8.533 8.533 8.53 8.53 0 008.533 8.533h187.733a8.53 8.53 0 008.533-8.533 8.53 8.53 0 00-8.533-8.533zM418.133 375.467H247.467c-4.719 0-8.533 3.823-8.533 8.533s3.814 8.533 8.533 8.533h170.667c4.719 0 8.533-3.823 8.533-8.533s-3.815-8.533-8.534-8.533zM366.933 426.667H145.067c-4.719 0-8.533 3.823-8.533 8.533s3.814 8.533 8.533 8.533h221.867c4.719 0 8.533-3.823 8.533-8.533s-3.815-8.533-8.534-8.533zM503.467 221.867h-358.4a8.53 8.53 0 00-8.533 8.533 8.53 8.53 0 008.533 8.533h358.4A8.53 8.53 0 00512 230.4a8.53 8.53 0 00-8.533-8.533zM93.867 324.267c-4.719 0-8.533 3.823-8.533 8.533s3.814 8.533 8.533 8.533h68.267c4.719 0 8.533-3.823 8.533-8.533s-3.814-8.533-8.533-8.533H93.867zM221.867 384a8.53 8.53 0 00-8.533-8.533h-153.6c-4.719 0-8.533 3.823-8.533 8.533s3.814 8.533 8.533 8.533h153.6a8.531 8.531 0 008.533-8.533zM187.733 332.8a8.53 8.53 0 008.533 8.533H384c4.719 0 8.533-3.823 8.533-8.533s-3.814-8.533-8.533-8.533H196.267a8.531 8.531 0 00-8.534 8.533z"/>
</svg>