<svg xmlns="http://www.w3.org/2000/svg" viewBox="0 0 512 512">
  <path d="M287.203 228.969H91.533v-30h195.67c15.912 0 28.857-12.945 28.857-28.856s-12.945-28.856-28.857-28.856-28.857 12.945-28.857 28.856h-30c0-32.453 26.403-58.856 58.857-58.856s58.857 26.403 58.857 58.856-26.403 58.856-58.857 58.856z" fill="#ffde91"/>
  <path d="M385.765 417.575c-32.454 0-58.856-26.403-58.856-58.856h30c0 15.911 12.945 28.856 28.856 28.856s28.857-12.945 28.857-28.856c0-15.912-12.945-28.857-28.857-28.857H152.144v-30h233.621c32.454 0 58.857 26.403 58.857 58.857 0 32.452-26.404 58.856-58.857 58.856z" fill="#edc472"/>
  <path d="M443.936 279.416H0v-30h443.936c20.989 0 38.064-17.075 38.064-38.064s-17.076-38.064-38.064-38.064-38.064 17.075-38.064 38.064h-30c0-37.531 30.534-68.064 68.064-68.064S512 173.82 512 211.351s-30.534 68.065-68.064 68.065z" fill="#fad17f"/>
  <path fill="#ffde91" d="M54.46 48.974h30v30h-30z"/>
  <path fill="#fad17f" d="M138.07 101.16h30v30h-30z"/>
  <path fill="#edc472" d="M233.27 26.94h30v30h-30z"/>
  <path fill="#ffde91" d="M461.53 26.94h30v30h-30z"/>
  <g fill="#fad17f">
    <path d="M360.76 65.21h30v30h-30zM17.789 323.29h30v30h-30z"/>
  </g>
  <path fill="#ffde91" d="M58.24 434.08h30v30h-30z"/>
  <g fill="#edc472">
    <path d="M179.07 378.33h30v30h-30zM461.53 387.79h30v30h-30z"/>
  </g>
  <path fill="#ffde91" d="M256 434.08h30v30h-30z"/>
  <path fill="#fad17f" d="M380.09 455.06h30v30h-30z"/>
</svg>