<svg xmlns="http://www.w3.org/2000/svg" viewBox="0 0 512 512">
  <path d="M451 143.853V136C451 61.557 390.443 0 316 0c-37.083 0-70.695 15.055-95.118 39.338A89.521 89.521 0 00181 30c-49.629 0-90 41.371-90 91 0 10.582 2.087 20.61 5.511 30L136 166l-21.592 15H0v150h114.408L136 346l-39.489 15C93.087 370.39 91 380.418 91 391c0 49.629 40.371 91 90 91a89.521 89.521 0 0039.882-9.338C245.305 496.945 278.917 512 316 512c74.443 0 135-61.557 135-136v-7.853c36.141-24.249 61-65.446 61-112.147s-24.859-87.898-61-112.147z" fill="#ecf2ff"/>
  <path d="M114.408 331L136 346l-39.489 15C93.087 370.39 91 380.418 91 391c0 49.629 40.371 91 90 91a89.521 89.521 0 0039.882-9.338C245.305 496.945 278.917 512 316 512c74.443 0 135-61.557 135-136v-7.853c36.141-24.249 61-65.446 61-112.147H0v75zM226 181c24.814 0 45-20.186 45-45h-30c0 8.276-6.724 15-15 15H96.511c4.063 11.138 10.087 21.341 17.897 30z" fill="#d9e5ff"/>
  <path d="M241 376h30c0-24.814-20.186-45-45-45H114.408c-7.809 8.659-13.834 18.862-17.897 30H226c8.276 0 15 6.724 15 15z" fill="#bfd6ff"/>
</svg>