<svg xmlns="http://www.w3.org/2000/svg" viewBox="0 0 512 512">
  <path d="M496.547 240.547H461.8l17.328-17.327c6.035-6.035 6.035-15.819 0-21.853-6.035-6.035-15.819-6.035-21.853 0l-39.181 39.181h-43.707l17.327-17.327c6.035-6.035 6.035-15.819 0-21.853-6.035-6.035-15.819-6.035-21.853 0l-39.181 39.181h-37.373l88.238-88.238h55.41c8.534 0 15.453-6.918 15.453-15.453 0-8.534-6.918-15.453-15.453-15.453H412.45l24.57-24.57c6.035-6.035 6.035-15.819 0-21.853-6.035-6.035-15.819-6.035-21.853 0l-24.57 24.57V75.046c0-8.534-6.918-15.453-15.453-15.453-8.534 0-15.453 6.918-15.453 15.453v55.41l-88.238 88.238v-37.373l6.401-6.401 32.78-32.78c6.035-6.035 6.035-15.819 0-21.853-6.035-6.035-15.819-6.035-21.853 0l-17.327 17.327V93.907l6.401-6.401 32.78-32.78c6.035-6.035 6.035-15.819 0-21.853-6.035-6.035-15.819-6.035-21.853 0L271.453 50.2V15.453C271.453 6.918 264.534 0 256 0c-8.534 0-15.453 6.918-15.453 15.453V50.2L223.22 32.872c-6.035-6.035-15.819-6.035-21.853 0-6.035 6.035-6.035 15.819 0 21.853l32.78 32.78 6.401 6.401v43.707l-17.327-17.327c-6.035-6.035-15.819-6.035-21.853 0-6.035 6.035-6.035 15.819 0 21.853l32.78 32.78 6.401 6.401v37.373l-88.238-88.238V75.046c0-8.534-6.918-15.453-15.453-15.453-8.534 0-15.453 6.918-15.453 15.453v24.505l-24.57-24.57c-6.035-6.035-15.819-6.035-21.853 0-6.035 6.035-6.035 15.819 0 21.853l24.57 24.57H75.046c-8.534 0-15.453 6.918-15.453 15.453 0 8.534 6.918 15.453 15.453 15.453h55.41l88.238 88.238h-37.373l-39.181-39.181c-6.035-6.035-15.819-6.035-21.853 0-6.035 6.035-6.035 15.819 0 21.853l17.327 17.327H93.907l-39.181-39.181c-6.035-6.035-15.819-6.035-21.853 0-6.035 6.035-6.035 15.819 0 21.853L50.2 240.547H15.453C6.918 240.547 0 247.466 0 256c0 8.534 6.918 15.453 15.453 15.453H50.2L32.872 288.78c-6.035 6.035-6.035 15.819 0 21.853 6.035 6.035 15.819 6.035 21.853 0l39.181-39.181h43.707l-17.327 17.327c-6.035 6.035-6.035 15.819 0 21.853 6.035 6.035 15.819 6.035 21.853 0l32.78-32.78 6.401-6.401h37.373l-88.238 88.238H75.046c-8.534 0-15.453 6.918-15.453 15.453 0 8.534 6.918 15.453 15.453 15.453h24.505l-24.57 24.57c-6.035 6.035-6.035 15.819 0 21.853 6.035 6.035 15.819 6.035 21.853 0l24.57-24.57v24.505c0 8.534 6.918 15.453 15.453 15.453 8.534 0 15.453-6.918 15.453-15.453v-55.41l88.238-88.238v37.373l-6.401 6.401-32.78 32.78c-6.035 6.035-6.035 15.819 0 21.853 6.035 6.035 15.819 6.035 21.853 0l17.327-17.327v43.707l-6.401 6.401-32.78 32.78c-6.035 6.035-6.035 15.819 0 21.853 6.035 6.035 15.819 6.035 21.853 0l17.327-17.327v34.747c0 8.534 6.918 15.453 15.453 15.453 8.534 0 15.453-6.918 15.453-15.453V461.8l17.327 17.327c6.035 6.035 15.819 6.035 21.853 0 6.035-6.035 6.035-15.819 0-21.853l-32.78-32.78-6.401-6.401v-43.707l17.327 17.327c6.035 6.035 15.819 6.035 21.853 0 6.035-6.035 6.035-15.819 0-21.853l-32.78-32.78-6.401-6.401v-37.373l88.238 88.238v55.41c0 8.534 6.918 15.453 15.453 15.453 8.534 0 15.453-6.918 15.453-15.453v-24.505l24.57 24.57c6.035 6.035 15.819 6.035 21.853 0 6.035-6.035 6.035-15.819 0-21.853l-24.57-24.57h24.505c8.534 0 15.453-6.918 15.453-15.453 0-8.534-6.918-15.453-15.453-15.453h-55.41l-88.238-88.238h37.373l6.401 6.401 32.78 32.78c6.035 6.035 15.819 6.035 21.853 0 6.035-6.035 6.035-15.819 0-21.853l-17.327-17.327h43.707l39.181 39.181c6.035 6.035 15.819 6.035 21.853 0 6.035-6.035 6.035-15.819 0-21.853L461.8 271.453h34.747c8.534 0 15.453-6.918 15.453-15.453 0-8.534-6.918-15.453-15.453-15.453z" fill="#a2ddfd"/>
  <path d="M330.679 271.453c-8.534 0-15.453-6.918-15.453-15.453 0-8.534 6.918-15.453 15.453-15.453h-37.373l26.427-26.427c-6.035 6.035-15.819 6.034-21.853 0-6.034-6.034-6.035-15.818 0-21.853l-26.426 26.426V181.32l6.401-6.401 32.78-32.78c6.035-6.035 6.035-15.819 0-21.853-6.035-6.035-15.819-6.035-21.853 0l-17.327 17.327V93.907l6.401-6.401 32.78-32.78c6.035-6.035 6.035-15.819 0-21.853-6.035-6.035-15.819-6.035-21.853 0L271.453 50.2V15.453C271.453 6.918 264.534 0 256 0s-15.453 6.918-15.453 15.453V50.2L223.22 32.872c-6.035-6.035-15.819-6.035-21.853 0-6.035 6.035-6.035 15.819 0 21.853l32.78 32.78 6.401 6.401v43.707l-17.327-17.327c-6.035-6.035-15.819-6.035-21.853 0-6.035 6.035-6.035 15.819 0 21.853l32.78 32.78 6.401 6.401v37.373l-88.238-88.238V75.046c0-8.534-6.918-15.453-15.453-15.453s-15.453 6.918-15.453 15.453v24.505l-24.57-24.57c-6.035-6.035-15.819-6.035-21.853 0-6.035 6.035-6.035 15.819 0 21.853l24.57 24.57H75.046c-8.534 0-15.453 6.918-15.453 15.453 0 8.534 6.918 15.453 15.453 15.453h55.41l88.238 88.238h-37.373l-39.181-39.181c-6.035-6.035-15.819-6.035-21.853 0-6.035 6.035-6.035 15.819 0 21.853l17.327 17.328H93.907l-39.181-39.181c-6.035-6.035-15.819-6.035-21.853 0-6.035 6.035-6.035 15.819 0 21.853L50.2 240.547H15.453C6.918 240.547 0 247.466 0 256s6.918 15.453 15.453 15.453H50.2L32.872 288.78c-6.035 6.035-6.035 15.819 0 21.853 6.035 6.035 15.819 6.035 21.853 0l39.181-39.181h43.707l-17.327 17.327c-6.035 6.035-6.035 15.819 0 21.853 6.035 6.035 15.819 6.035 21.853 0l32.78-32.78 6.401-6.401h37.373l-88.238 88.238H75.046c-8.534 0-15.453 6.918-15.453 15.453 0 8.534 6.918 15.453 15.453 15.453h24.505l-24.57 24.57c-6.035 6.035-6.035 15.819 0 21.853 6.035 6.035 15.819 6.035 21.853 0l24.57-24.57v24.505c0 8.534 6.918 15.453 15.453 15.453s15.453-6.918 15.453-15.453v-55.41l88.238-88.238v37.373l-6.401 6.401-32.78 32.78c-6.035 6.035-6.035 15.819 0 21.853 6.035 6.035 15.819 6.035 21.853 0l17.327-17.327v43.707l-6.401 6.401-32.78 32.78c-6.035 6.035-6.035 15.819 0 21.853 6.035 6.035 15.819 6.035 21.853 0l17.327-17.327v34.747c0 8.534 6.918 15.453 15.453 15.453s15.453-6.919 15.453-15.453V461.8l17.327 17.327c6.035 6.035 15.819 6.035 21.853 0 6.035-6.035 6.035-15.819 0-21.853l-32.78-32.78-6.401-6.401v-43.707l17.327 17.327c6.035 6.035 15.819 6.035 21.853 0 6.035-6.035 6.035-15.819 0-21.853l-32.78-32.78-6.401-6.401v-37.373l26.427 26.427c-6.035-6.035-6.035-15.819 0-21.853 6.034-6.034 15.818-6.035 21.852-.001l-26.426-26.426z" fill="#7acdf9"/>
</svg>