<svg viewBox="0 0 510 510" xmlns="http://www.w3.org/2000/svg">
  <path d="M309.4 75.263l-13.84 5.79c-11.475 11.854-157.358 162.628-167.51 173.11v15H83c-45.77 0-83-37.23-83-83 0-45.84 37.1-83 83-83h14.01c12.272-90.483 123.522-128.468 188.48-63.48a110.227 110.227 0 0123.91 35.58z" fill="#00465f"/>
  <path d="M309.4 75.263l-13.84 5.79c-5.14 5.31-46.29 47.84-86.54 89.43V7.123c45.525.506 84.054 29.178 100.38 68.14z" fill="#002c3c"/>
  <path d="M510 262.163c0 34.792-28.152 63-63 63H311v-15h-97.48v15H195c-45.77 0-83-37.23-83-83 0-45.839 37.102-83 83-83h14.01c6.49-47.86 43.59-86.11 90.87-94.35C368.056 52.952 430 105.404 430 174.163v25h17c34.74 0 63 28.26 63 63z" fill="#00607f"/>
  <path d="M510 262.163c0 34.792-28.152 63-63 63H311v-15h-6.96V64.173C370.213 54.965 430 106.611 430 174.163v25h17c34.74 0 63 28.26 63 63z" fill="#00465f"/>
  <path d="M429.94 295.163l-229.59 207.72 20.68-113.72h-51.21l58.24-165.52h138.08l-32 71.52z" fill="#fc0"/>
  <path d="M429.94 295.163l-125.9 113.91v-185.43h62.1l-32 71.52z" fill="#ff9e22"/>
</svg>