<svg viewBox="-44 0 512 512" xmlns="http://www.w3.org/2000/svg">
  <path d="M227.895 81.98c-50.938 0-98.891-3.5-135.028-9.855-55.379-9.734-61.781-22.434-61.781-31.137S37.488 19.59 92.867 9.855C129.004 3.5 176.957 0 227.895 0c50.933 0 98.886 3.5 135.027 9.855 55.375 9.735 61.777 22.43 61.777 31.133 0 12.149-14.762 18.63-25.863 22.446-13.543 4.656-33.133 8.754-56.649 11.851-4.25.567-8.136-2.426-8.695-6.668a7.749 7.749 0 016.668-8.695c49.856-6.57 66.059-15.418 68.797-18.93-2.375-2.98-15.285-10.457-53.805-16.738-34.648-5.649-79.843-8.758-127.257-8.758-47.418 0-92.614 3.11-127.262 8.758-38.5 6.277-51.414 13.75-53.801 16.734 2.387 2.985 15.3 10.461 53.8 16.735 34.65 5.648 79.845 8.761 127.263 8.761 28.89 0 56.59-1.125 82.328-3.34a7.744 7.744 0 018.382 7.055 7.747 7.747 0 01-7.054 8.387c-26.176 2.25-54.32 3.394-83.656 3.394zm0 0M257.004 137.617c-23.36 0-48.918-1.183-75.238-3.531-47.094-4.203-91.13-11.656-123.993-20.98C19.27 102.18 1.91 90.702 3.133 76.987a7.751 7.751 0 018.406-7.031 7.75 7.75 0 017.047 8.156c.46.938 5.941 9.969 47.578 21.239 31.488 8.523 73.031 15.375 116.98 19.3 43.946 3.922 86.051 4.535 118.547 1.723 42.977-3.715 49.973-11.633 50.59-12.473.504-4.132 4.203-7.16 8.38-6.777a7.751 7.751 0 017.03 8.406c-1.226 13.715-20.347 21.938-60.175 25.871-14.996 1.477-32.07 2.215-50.512 2.215zm0 0M113.2 287.855a8.24 8.24 0 01-.536-.015c-54.598-3.727-82.797-14.242-83.824-31.254a7.748 7.748 0 017.27-8.2 7.74 7.74 0 018.199 7.266c.707 2.536 14.59 12.985 69.414 16.727a7.753 7.753 0 017.203 8.258 7.752 7.752 0 01-7.727 7.218zm0 0M150.633 289.066c-2.184 0-4.352-.011-6.508-.035a7.746 7.746 0 01-7.668-7.828c.043-4.277 3.52-7.68 7.828-7.668 15.25.16 31.16-.258 47.3-1.23 39.24-2.368 76.185-7.825 104.028-15.364 37.25-10.086 40.168-18.851 40.18-18.937-.258-4.27 2.996-7.914 7.27-8.168 4.261-.258 7.94 3.023 8.199 7.297.812 13.445-15.274 24.601-49.18 34.101-29.125 8.16-68.035 14.032-109.562 16.54-14.223.859-28.286 1.292-41.887 1.292zm0 0"/>
  <path d="M231.89 245.504c-19.937 0-41.468-.988-63.581-2.961-42.989-3.836-83.164-10.953-113.133-20.04-34.813-10.55-51.153-22.218-49.95-35.671.38-4.262 4.141-7.418 8.407-7.027a7.748 7.748 0 017.035 8.324c.5 2.312 9.164 10.855 41.93 20.418 28.66 8.363 66.695 14.957 107.086 18.562 40.394 3.606 78.992 3.852 108.683.7 33.942-3.606 43.98-10.48 44.883-12.668.422-4.22 4.168-7.328 8.398-6.946a7.751 7.751 0 017.032 8.407c-1.203 13.453-19.352 22.043-55.485 26.261-15.097 1.762-32.492 2.64-51.304 2.64zm0 0M162.785 346.7c-10.926 0-21.144-.52-30.375-1.563-29.45-3.332-45.32-11.606-47.176-24.582a7.754 7.754 0 016.579-8.77 7.748 7.748 0 018.765 6.578c.23 1.625 6.61 8.325 33.574 11.375 24.145 2.735 55.703 1.633 88.864-3.101s63.765-12.504 86.183-21.887c25.031-10.473 29.281-18.688 29.051-20.316a7.75 7.75 0 016.574-8.766c4.239-.61 8.16 2.34 8.766 6.578 1.855 12.977-11.07 25.36-38.41 36.8-23.598 9.872-55.551 18.017-89.973 22.93-21.926 3.13-43.258 4.723-62.422 4.723zm0 0M243.203 398.168c-47.808 0-91.594-11.059-93.058-34.691a7.75 7.75 0 0115.468-.961c.535 8.636 35.02 23.375 96.32 19.57 61.305-3.8 93.704-22.68 93.169-31.316a7.755 7.755 0 017.257-8.215c4.25-.27 7.946 2.984 8.211 7.258 1.664 26.855-52.906 44.343-107.675 47.742-6.575.406-13.168.613-19.692.613zm0 0M246.215 449.43c-4.102 0-8.262-.137-12.461-.41-21.805-1.426-42.184-6.446-57.383-14.133-17.238-8.719-26.289-20.215-25.496-32.367a7.755 7.755 0 018.238-7.227 7.745 7.745 0 017.227 8.238c-.348 5.324 6.176 12.04 17.023 17.528 13.38 6.765 31.633 11.203 51.403 12.5 19.77 1.293 38.445-.73 52.593-5.696 11.473-4.023 18.813-9.836 19.164-15.156.278-4.27 3.97-7.512 8.239-7.227a7.747 7.747 0 017.222 8.239c-.793 12.156-11.27 22.37-29.492 28.77-12.976 4.55-29.078 6.94-46.277 6.94zm0 0M210.973 485.031c-10.368 0-23.23-2.133-36.309-6.031-13.297-3.96-25.418-9.328-34.129-15.113-14.312-9.508-15.457-17.735-13.902-22.961 1.222-4.102 5.535-6.442 9.64-5.215a7.749 7.749 0 015.434 8.684c1.824 3.64 14.29 12.875 37.383 19.753 23.097 6.883 38.582 5.977 42.101 3.93a7.745 7.745 0 019.301-4.293 7.745 7.745 0 015.211 9.637c-1.558 5.23-7.02 11.488-24.203 11.61h-.527zm-69.485-39.687l-.004.004c.004 0 .004-.004.004-.004zm0 0M152.215 512c-3.059 0-6.195-.16-9.363-.484-10.57-1.075-20.446-3.868-27.805-7.86-12.7-6.883-13.871-15.008-13.438-19.238a7.75 7.75 0 018.493-6.922 7.74 7.74 0 016.945 8.219c1.016 2.37 10.234 8.637 27.379 10.383 17.144 1.75 27.437-2.524 28.906-4.645.566-4.113 4.3-7.078 8.461-6.648 4.258.433 7.36 4.238 6.926 8.492-.434 4.23-3.219 11.953-17.043 16.133-5.613 1.699-12.317 2.57-19.461 2.57zm-35.188-26.012M152.137 185.836c-36.016 0-69.38-2.332-95.801-6.774C18.3 172.668.398 163.298.004 149.566c-.125-4.277 3.246-7.843 7.52-7.968 4.222-.11 7.75 3.152 7.964 7.347.426.746 6.125 9.035 47.164 15.442 30.957 4.832 71.371 6.824 113.797 5.597 42.426-1.222 82.66-5.53 113.29-12.14 40.597-8.758 45.808-17.36 46.195-18.13a7.745 7.745 0 017.523-7.792c4.281-.121 7.848 3.242 7.969 7.52.398 13.73-16.934 24.117-54.543 32.69-32.02 7.298-74.633 12.036-119.988 13.345-8.352.242-16.625.359-24.758.359zm183.8-45.945h.008zm0 0"/>
</svg>